<svg width="463" height="87" viewBox="0 0 463 87" fill="none" xmlns="http://www.w3.org/2000/svg">
<path d="M14.6563 17.9062C13.9219 18.0781 14.3906 18.0469 13.7812 18.125C11.1719 18.6875 13.1094 19.1875 14.6563 17.9062ZM60.5469 18.9531C60.7344 18.8281 61.3906 18.1875 59.3437 17.5625C59.4687 18.2031 58.9219 18.1406 58.9219 18.5C60.4375 19.875 61.0625 22.2656 63 22.7656C63.375 21.0469 61.2812 20.2031 60.5469 18.9531V18.9531ZM13.2656 17.4063C13.5 18.7969 14.5469 15.9375 14.5625 14.9219C14.1562 15.1562 13.75 15.3906 13.3281 15.5781C14.3125 16.0781 13.4531 16.6094 12.3906 17.4063C10.2344 20.0938 14.4063 15.3125 13.2656 17.4063V17.4063ZM40 0C17.9063 0 0 17.9063 0 40C0 62.0781 17.9063 80 40 80C62.0937 80 80 62.0781 80 40C80 17.9063 62.0937 0 40 0ZM41.0625 13.4063L41.25 13.4687C40.5 14.4375 45.1563 17.2656 41.8125 17.5C38.6875 18.3906 43.125 16.6875 40.7031 16.9844C41.9844 15.2031 39.6875 15.1719 41.0625 13.4063V13.4063ZM22.0937 15.9687C20.9687 15.0312 17.4375 17.25 18.6719 16.7188C21.7344 15.5156 18.875 16.8438 19.5938 18.2812C18.9375 19.6406 19.375 16.9375 17.75 18.5469C16.5781 18.8125 13.7031 21.4687 14.0625 20.6562C13.9687 21.9219 10.6406 23.4219 10.1875 25.5312C9.09375 28.4531 9.92188 25.4219 9.71875 24.2812C8.15625 22.2969 5.3125 27.6406 6.15625 29.75C7.57813 27.25 7.46875 29.4844 6.4375 30.5938C7.48438 32.5156 5.48437 35.0156 7.46875 36.4375C8.34375 36.6406 10.0938 33.5 9.32813 36.7656C9.85938 33.9375 10.7969 37.4375 12.3125 36.6563C12.4063 38.1406 13.3281 37.4531 13.5312 39.25C16.0625 39.0625 18.375 43.3438 15.3594 44.1563C15.8125 44.0313 16.7031 44.8281 17.7344 44.2188C19.4844 45.6094 24.0937 45.7812 24.2188 49.2188C21.0469 50.7344 23.4375 54.8906 20.6875 56.375C17.5312 55.9062 19.6094 60.2656 18.2812 59.7656C18.8125 62.9063 15.0938 59.3594 16.5313 61.0938C19.1719 62.7187 15.375 62.3906 16.5625 63.5781C15.2344 63.2969 17.3906 66.0469 17.75 67.0625C19.6562 70.1563 16.1094 66.375 15.0625 65.3438C14.0625 63.3438 11.7031 59.5156 11.0469 56.375C10.6719 51.8125 7.14062 48.75 6.32812 44.2969C5.51563 41.8125 8.5625 37.8281 6.92187 36.4375C5.5 35.3281 6.07813 31.5313 5.23438 29.5312C7.34375 20.3906 14.0469 12.6875 22.0937 8.125C21.2656 8.73438 26.8281 6.54687 26.1875 7.07812C26.0156 7.46875 29.4375 5.59375 31.5 5.3125C31.2813 5.34375 26.1406 7.1875 27.5625 6.9375C25.3594 8.01563 27.3438 7.40625 28.4375 6.85938C26.25 8.46875 24.5625 8.01563 22.0781 9.4375C19.5781 10.0938 20.0937 12.6875 18.3125 13.9844C19.3594 14.1719 21.9844 11.2812 23.5156 10.2656C27.0312 8.5625 21.7344 13.3594 25.0781 11.2969C23.9531 12.3438 24.1875 14.0156 23.5 14.4844C23.1562 14.3906 24.8594 15.2969 22.0937 15.9687ZM27.5625 8.78125C27.2031 9.26563 26.7031 10.3125 26.4062 9.67188C26 9.875 25.8438 10.75 25.0781 10.0469C25.5313 9.71875 26 8.9375 25.1094 9.42187C25.5156 8.98437 29.1406 7.75 28.9375 7.28125C29.5781 6.875 29.5156 6.67187 28.7812 6.92187C28.4062 6.79687 29.6719 5.73437 31.3594 5.59375C31.5937 5.59375 31.6875 5.75 31.2656 5.70312C28.7188 6.48438 29.8125 6.26562 31.5313 5.70312C30.875 6.07813 30.4219 6.1875 30.3125 6.35938C32.0312 5.73438 30.2187 6.8125 30.6094 6.73437C30.125 6.98437 30.6875 7.0625 29.75 7.42188C29.9219 7.28125 28.2188 8.4375 29.2344 8.09375C28.25 9.03125 27.8125 9.04688 27.5625 8.78125V8.78125ZM29.0625 11.0156C29.0938 9.51562 31.25 8.5625 30.9844 8.48437C33.6406 7.23437 30.0625 8.53125 32.1563 7.40625C32.9375 7.32813 34.5938 4.82812 36.8906 4.67187C39.4219 3.90625 38.25 4.71875 40.125 4L39.75 4.3125C39.4219 4.35938 39.8281 4.9375 38.6406 5.8125C38.5156 7.17188 36.375 6.54688 37.4375 8C36.75 7.01563 35.7187 7.96875 37.0156 8.0625C35.625 9.125 32.3906 9.3125 30.8437 11.0781C29.8437 12.5156 28.9219 12.0625 29.0625 11.0156V11.0156ZM40.1719 16.0156C39.1094 18.5781 38.0781 15.6406 39.9531 15.1719C40.4219 15.4219 40.6094 15.5 40.1719 16.0156ZM36.1719 10.8906C35.8594 9.73437 36.1094 10.3438 37.9688 9.79688C39.25 10.7188 36.8281 11.3281 36.1719 10.8906ZM65.2656 56.75C63.7969 54.2188 67.0469 51.875 68.1406 49.75C68 52.2344 67.6875 54.6875 65.2656 56.75ZM70.7969 27.8281C69.2031 27.9531 67.7656 28.3281 66.3281 27.4219C63.0156 23.7969 66.9375 31.5156 68.0312 28.3594C71.9687 29.8594 67.9688 36.3281 65.4844 35.6562C64.0938 32.6562 62.375 29.3594 59.3437 27.8906C61.6719 30.4688 62.8281 33.6406 65.3281 35.9687C65.5 39.2187 68.7969 34.7812 68.5938 37.2969C68.9062 41.625 63.7031 44.2187 64.6094 48.5625C66.5469 52.5156 60.875 53.2344 61.5156 56.7812C59.2344 59.3281 56.7969 62.7656 52.7031 62.2188C52.7031 60.0625 51.6094 58.2344 51.3594 56.0156C49.1406 53.2031 53.7031 50.1875 50.875 47.25C47.6094 46.5156 51.5469 42.0156 48.1875 42.4375C46.1719 40.4219 43.2188 42.375 40.3281 42.3906C36.7031 42.7344 32.9688 37.9375 34.5781 34.5469C33.2969 31.0156 38.6406 29.9844 38.7812 26.875C41.3437 24.7344 44.9844 25 48.4531 24.5C48.2031 26.9844 50.8281 27 52.8125 27.8281C53.9219 25.1406 57.375 28.2656 59.7344 26.5625C60.5469 22.5938 57.4375 24.9844 55.6563 23.7188C53.5 20.5625 60.2656 22.0938 59.5625 20.4375C56.9375 20.4219 58.4219 17.2031 56.5625 19C58.2344 19.2969 56.2656 20.6094 56.3125 19.1094C53.7812 18.375 56.2188 21.9844 54.9375 22.3281C52.9844 21.5156 53.9062 23.25 54.1094 23.5156C53.2656 25.3437 52.2344 20.8281 49.8438 20.9531C47.4688 18.7813 48.9063 21.9375 50.9688 22.4531C50.5313 22.5781 51.2187 24.375 50.6719 23.6094C48.9687 21.2656 45.7344 19.7031 43.8125 22.5781C43.6094 25.2656 38.1406 26.0313 39.0156 22.8906C37.7344 19.6406 42.9844 22.7969 42.5 20.2031C39.125 17.9688 43.4219 18.6875 44.5625 16.5937C47.1563 16.6719 44.6719 14.4687 45.8906 13.8281C45.7656 16.2188 47.875 15.7656 49.5469 15.3125C49.1406 13.9375 50.5469 13.9844 49.6875 12.8437C53.5625 11.2969 46.7344 13.5625 48.1094 10.1719C46.4375 9.01562 47.4062 12.7188 48.1094 13.1094C48.1562 14.25 47.1875 15.6563 45.8594 13.2656C43.9219 14.5313 44.125 11.9844 44 12.25C43.7813 11.2656 45.4688 11.2187 45.4844 9.5C45.3438 8.40625 45.375 7.82813 46.1562 7.76563C46.2187 7.92188 49.3594 7.96875 50.4688 9.26562C47.4375 8.65625 50.0156 9.76562 51.375 10.3906C49.9219 9.25 51.9531 10.3906 50.7656 9.09375C51.2344 9.1875 49.4688 7.3125 51.2813 8.95312C50.2969 7.78125 53.2031 8.125 51.4844 7.25C54 7.95313 52.5156 7.3125 51.0313 6.67188C46.9375 4.23438 58.2656 9.96875 53.6406 7.42188C56.5937 8.0625 47.3281 5.14062 51.5469 6.42187C49.9375 5.71875 51.5 6.10937 52.9531 6.5625C50.3437 5.75 46.4375 4.23438 46.5938 4.17188C47.5 4.23438 48.3906 4.4375 49.25 4.6875C51.9219 5.48437 48.4844 4.5 49.2188 4.51562C58.4062 6.875 66.4531 13.0312 71.3438 21.0781C72.4844 22.2812 75.5937 30.2344 73.9687 26.7031C74.7031 29.5156 74.8125 32.5469 75.2031 35.4219C74.3906 34.5156 73.4844 31.1719 72.7031 29.3125C72.375 30.0313 72 28.2969 70.7969 27.8281Z" fill="#A1BFD9"/>
<path d="M92.0312 60.6953L97.7734 30.3438H106.533L97.0703 73H88.2227L81.2793 44.4648L74.3359 73H65.4883L56.0254 30.3438H64.7852L70.5566 60.6367L77.5879 30.3438H85.0293L92.0312 60.6953ZM136.973 54.5137H120.098V65.9395H139.902V73H111.309V30.3438H139.844V37.4629H120.098V47.6289H136.973V54.5137ZM169.141 64.2109H153.73L150.801 73H141.455L157.334 30.3438H165.479L181.445 73H172.1L169.141 64.2109ZM156.104 57.0918H166.768L161.406 41.125L156.104 57.0918ZM214.023 37.4629H200.957V73H192.168V37.4629H179.277V30.3438H214.023V37.4629ZM253.779 73H244.99V54.7188H227.852V73H219.062V30.3438H227.852V47.6289H244.99V30.3438H253.779V73ZM287.148 54.5137H270.273V65.9395H290.078V73H261.484V30.3438H290.02V37.4629H270.273V47.6289H287.148V54.5137ZM311.025 57.3848H304.023V73H295.234V30.3438H311.084C316.123 30.3438 320.01 31.4668 322.744 33.7129C325.479 35.959 326.846 39.1328 326.846 43.2344C326.846 46.1445 326.211 48.5762 324.941 50.5293C323.691 52.4629 321.787 54.0059 319.229 55.1582L328.457 72.5898V73H319.023L311.025 57.3848ZM304.023 50.2656H311.113C313.32 50.2656 315.029 49.709 316.24 48.5957C317.451 47.4629 318.057 45.9102 318.057 43.9375C318.057 41.9258 317.48 40.3438 316.328 39.1914C315.195 38.0391 313.447 37.4629 311.084 37.4629H304.023V50.2656ZM372.578 64.2109H357.168L354.238 73H344.893L360.771 30.3438H368.916L384.883 73H375.537L372.578 64.2109ZM359.541 57.0918H370.205L364.844 41.125L359.541 57.0918ZM397.656 57.9707V73H388.867V30.3438H405.508C408.711 30.3438 411.523 30.9297 413.945 32.1016C416.387 33.2734 418.262 34.9434 419.57 37.1113C420.879 39.2598 421.533 41.7109 421.533 44.4648C421.533 48.6445 420.098 51.9453 417.227 54.3672C414.375 56.7695 410.42 57.9707 405.361 57.9707H397.656ZM397.656 50.8516H405.508C407.832 50.8516 409.6 50.3047 410.811 49.2109C412.041 48.1172 412.656 46.5547 412.656 44.5234C412.656 42.4336 412.041 40.7441 410.811 39.4551C409.58 38.166 407.881 37.502 405.713 37.4629H397.656V50.8516ZM436.387 57.9707V73H427.598V30.3438H444.238C447.441 30.3438 450.254 30.9297 452.676 32.1016C455.117 33.2734 456.992 34.9434 458.301 37.1113C459.609 39.2598 460.264 41.7109 460.264 44.4648C460.264 48.6445 458.828 51.9453 455.957 54.3672C453.105 56.7695 449.15 57.9707 444.092 57.9707H436.387ZM436.387 50.8516H444.238C446.562 50.8516 448.33 50.3047 449.541 49.2109C450.771 48.1172 451.387 46.5547 451.387 44.5234C451.387 42.4336 450.771 40.7441 449.541 39.4551C448.311 38.166 446.611 37.502 444.443 37.4629H436.387V50.8516Z" fill="#4C6E8A"/>
</svg>
