<svg width="125" height="125" viewBox="0 0 125 125" fill="none" xmlns="http://www.w3.org/2000/svg">
<path d="M62.5 10.4167C64.2968 10.4167 65.7552 11.875 65.7552 13.6719V20.1823C65.7552 21.0456 65.4122 21.8736 64.8017 22.4841C64.1913 23.0945 63.3633 23.4375 62.5 23.4375C61.6366 23.4375 60.8086 23.0945 60.1982 22.4841C59.5877 21.8736 59.2448 21.0456 59.2448 20.1823V13.6719C59.2448 11.875 60.7031 10.4167 62.5 10.4167ZM88.5989 62.6198C88.5989 76.9687 76.9687 88.5989 62.6224 88.5989C48.2734 88.5989 36.6458 76.9687 36.6458 62.6198C36.6458 48.2734 48.276 36.6432 62.6224 36.6432C76.9713 36.6432 88.5989 48.2734 88.5989 62.6198ZM111.328 65.7552C112.191 65.7552 113.019 65.4122 113.63 64.8018C114.24 64.1913 114.583 63.3633 114.583 62.5C114.583 61.6367 114.24 60.8087 113.63 60.1982C113.019 59.5877 112.191 59.2448 111.328 59.2448H104.818C103.954 59.2448 103.126 59.5877 102.516 60.1982C101.905 60.8087 101.562 61.6367 101.562 62.5C101.562 63.3633 101.905 64.1913 102.516 64.8018C103.126 65.4122 103.954 65.7552 104.818 65.7552H111.328ZM62.5 101.562C64.2968 101.562 65.7552 103.021 65.7552 104.818V111.328C65.7552 112.191 65.4122 113.019 64.8017 113.63C64.1913 114.24 63.3633 114.583 62.5 114.583C61.6366 114.583 60.8086 114.24 60.1982 113.63C59.5877 113.019 59.2448 112.191 59.2448 111.328V104.818C59.2448 103.021 60.7031 101.562 62.5 101.562ZM20.1823 65.7552C21.0456 65.7552 21.8736 65.4122 22.484 64.8018C23.0945 64.1913 23.4375 63.3633 23.4375 62.5C23.4375 61.6367 23.0945 60.8087 22.484 60.1982C21.8736 59.5877 21.0456 59.2448 20.1823 59.2448H13.6718C12.8085 59.2448 11.9805 59.5877 11.3701 60.1982C10.7596 60.8087 10.4166 61.6367 10.4166 62.5C10.4166 63.3633 10.7596 64.1913 11.3701 64.8018C11.9805 65.4122 12.8085 65.7552 13.6718 65.7552H20.1823ZM24.3932 24.3906C25.0036 23.7808 25.8311 23.4382 26.694 23.4382C27.5568 23.4382 28.3844 23.7808 28.9948 24.3906L35.5052 30.901C35.8162 31.2012 36.0642 31.5604 36.235 31.9575C36.4057 32.3546 36.4956 32.7817 36.4995 33.2139C36.5033 33.6461 36.4211 34.0748 36.2575 34.4749C36.094 34.875 35.8524 35.2385 35.5468 35.5442C35.2413 35.85 34.8779 36.0918 34.4779 36.2556C34.0779 36.4193 33.6493 36.5018 33.217 36.4982C32.7848 36.4946 32.3576 36.4049 31.9604 36.2344C31.5632 36.0639 31.204 35.816 30.9036 35.5052L24.3932 28.9948C24.0908 28.6925 23.851 28.3336 23.6873 27.9386C23.5237 27.5436 23.4395 27.1203 23.4395 26.6927C23.4395 26.2651 23.5237 25.8418 23.6873 25.4468C23.851 25.0518 24.0908 24.6929 24.3932 24.3906ZM28.9948 100.612C28.6944 100.923 28.3351 101.171 27.9379 101.341C27.5407 101.512 27.1136 101.601 26.6813 101.605C26.2491 101.609 25.8205 101.526 25.4205 101.362C25.0205 101.199 24.6571 100.957 24.3515 100.651C24.046 100.345 23.8044 99.9818 23.6408 99.5817C23.4772 99.1816 23.395 98.7529 23.3989 98.3207C23.4028 97.8884 23.4927 97.4613 23.6634 97.0642C23.8341 96.6671 24.0822 96.308 24.3932 96.0078L30.9036 89.4974C31.5177 88.9046 32.3401 88.5767 33.1936 88.5844C34.0471 88.592 34.8634 88.9346 35.4668 89.5383C36.0702 90.142 36.4123 90.9586 36.4195 91.8121C36.4266 92.6656 36.0983 93.4878 35.5052 94.1016L28.9948 100.612ZM100.612 24.3906C100.002 23.7808 99.174 23.4382 98.3112 23.4382C97.4483 23.4382 96.6208 23.7808 96.0104 24.3906L89.5 30.901C88.9068 31.5148 88.5785 32.337 88.5857 33.1905C88.5928 34.044 88.9349 34.8605 89.5383 35.4643C90.1417 36.068 90.958 36.4106 91.8115 36.4182C92.6651 36.4259 93.4874 36.098 94.1015 35.5052L100.612 28.9948C100.914 28.6925 101.154 28.3336 101.318 27.9386C101.481 27.5436 101.566 27.1203 101.566 26.6927C101.566 26.2651 101.481 25.8418 101.318 25.4468C101.154 25.0518 100.914 24.6929 100.612 24.3906ZM96.0104 100.612C96.3107 100.923 96.67 101.171 97.0672 101.341C97.4644 101.512 97.8916 101.601 98.3238 101.605C98.756 101.609 99.1847 101.526 99.5847 101.362C99.9847 101.199 100.348 100.957 100.654 100.651C100.959 100.345 101.201 99.9818 101.364 99.5817C101.528 99.1816 101.61 98.7529 101.606 98.3207C101.602 97.8884 101.512 97.4613 101.342 97.0642C101.171 96.6671 100.923 96.308 100.612 96.0078L94.1015 89.4974C93.4874 88.9046 92.6651 88.5767 91.8115 88.5844C90.958 88.592 90.1417 88.9346 89.5383 89.5383C88.9349 90.142 88.5928 90.9586 88.5857 91.8121C88.5785 92.6656 88.9068 93.4878 89.5 94.1016L96.0104 100.612Z" fill="#4C6E8A"/>
</svg>
