<svg width="125" height="125" viewBox="0 0 125 125" fill="none" xmlns="http://www.w3.org/2000/svg">
<path d="M98.7057 85.9609C85.7604 108.383 57.0911 116.065 34.6719 103.117C28.6407 99.6459 23.4615 94.8707 19.513 89.1406C19.2074 88.6972 19.0077 88.1896 18.9294 87.6568C18.851 87.124 18.8961 86.5803 19.0612 86.0677C19.2263 85.5551 19.5069 85.0873 19.8815 84.7003C20.256 84.3134 20.7144 84.0176 21.2213 83.8359C38.8776 77.5182 48.3359 70.1927 53.8255 59.7187C59.6015 48.6901 61.0937 36.6094 57.0547 20.0521C56.9248 19.5194 56.9212 18.9638 57.0444 18.4295C57.1675 17.8952 57.4139 17.3972 57.7638 16.9751C58.1138 16.553 58.5576 16.2187 59.0598 15.9987C59.562 15.7788 60.1087 15.6793 60.6562 15.7083C67.9531 16.099 75.0833 18.1953 81.5469 21.9297C103.969 34.8724 111.651 63.5417 98.7057 85.9609V85.9609Z" fill="#4C6E8A"/>
</svg>
