<svg width="125" height="125" viewBox="0 0 125 125" fill="none" xmlns="http://www.w3.org/2000/svg">
<path d="M67.6979 41.6615C84.2005 41.6615 93.5625 52.5833 94.9219 65.776H95.3385C105.958 65.776 114.568 74.3646 114.568 84.9557C114.568 95.5495 105.958 104.135 95.3385 104.135H40.0521C29.4349 104.135 20.8255 95.5495 20.8255 84.9557C20.8255 74.3646 29.4349 65.776 40.0547 65.776H40.4713C41.8411 52.4974 51.1927 41.6615 67.6979 41.6615V41.6615ZM19.7109 62.9974C20.277 63.9784 20.4575 65.135 20.2173 66.2418C19.977 67.3486 19.3333 68.3263 18.4114 68.9844L18.0416 69.2214L14.6588 71.1745C13.6449 71.7619 12.4436 71.9362 11.3046 71.6611C10.1655 71.386 9.17615 70.6828 8.54201 69.6974C7.90788 68.712 7.67768 67.5202 7.89923 66.3695C8.12078 65.2188 8.77705 64.1977 9.73175 63.5182L10.1015 63.2813L13.487 61.3281C14.5334 60.7241 15.7769 60.5604 16.944 60.8729C18.1111 61.1855 19.1063 61.9487 19.7109 62.9948V62.9974ZM56.5234 38.1536C46.625 41.3307 39.5729 48.8047 36.6797 58.7813L36.4349 59.6667L36.1328 60.9063L35.0599 61.1068C31.9415 61.7629 28.9837 63.0294 26.3567 64.8333C23.9607 60.7299 23.0624 55.9223 23.815 51.2305C24.5677 46.5388 26.9246 42.2534 30.4838 39.1052C34.0431 35.957 38.5843 34.1411 43.3328 33.9671C48.0814 33.7931 52.7433 35.2718 56.5234 38.151V38.1536ZM14.3359 36.4036L14.6797 36.5469L18.2213 38.1979C19.2939 38.6911 20.1332 39.5813 20.5625 40.6809C20.9918 41.7806 20.9777 43.004 20.5231 44.0934C20.0685 45.1829 19.2089 46.0534 18.1252 46.5217C17.0416 46.9901 15.8185 47.0196 14.7135 46.6042L14.3698 46.4583L10.8281 44.8073C9.76379 44.309 8.93312 43.4188 8.50953 42.3226C8.08594 41.2264 8.10219 40.009 8.55487 38.9245C9.00756 37.84 9.86169 36.9723 10.9389 36.5026C12.0161 36.0328 13.2332 35.9974 14.3359 36.4036V36.4036ZM64.1015 21.3984C65.0387 22.0543 65.695 23.0386 65.9401 24.1559C66.1852 25.2732 66.0011 26.4418 65.4245 27.4297L65.2213 27.7448L62.9817 30.9453C62.3094 31.915 61.2872 32.5862 60.1302 32.8175C58.9731 33.0489 57.7714 32.8225 56.7779 32.1859C55.7844 31.5493 55.0765 30.5522 54.8032 29.4043C54.5299 28.2564 54.7124 27.0473 55.3125 26.0313L55.5156 25.7188L57.7552 22.5156C58.0984 22.0251 58.5349 21.607 59.0398 21.2852C59.5447 20.9634 60.108 20.7442 60.6976 20.6403C61.2873 20.5363 61.8916 20.5495 62.4761 20.6791C63.0606 20.8088 63.6138 21.0523 64.1041 21.3958L64.1015 21.3984ZM37.3021 20.3047L37.4713 20.7109L38.8073 24.3828C39.2116 25.4838 39.1759 26.6983 38.7076 27.7736C38.2392 28.8489 37.3744 29.7023 36.2929 30.1561C35.2114 30.61 33.9965 30.6294 32.9011 30.2104C31.8056 29.7913 30.9139 28.966 30.4114 27.9063L30.2422 27.5L28.9062 23.8281C28.5054 22.7278 28.5436 21.5155 29.0127 20.4426C29.4818 19.3697 30.346 18.5185 31.4259 18.0656C32.5057 17.6128 33.7185 17.593 34.8126 18.0104C35.9067 18.4277 36.7982 19.2503 37.3021 20.3073V20.3047Z" fill="#4C6E8A"/>
</svg>
