<svg width="125" height="125" viewBox="0 0 125 125" fill="none" xmlns="http://www.w3.org/2000/svg">
<path d="M67.7161 41.6927C84.2187 41.6927 93.5807 52.6146 94.9427 65.8073H95.3593C105.979 65.8073 114.588 74.3932 114.588 84.987C114.588 95.5807 105.979 104.167 95.3567 104.167H40.0755C29.4557 104.167 20.8463 95.5807 20.8463 84.987C20.8463 74.3932 29.4557 65.8073 40.0755 65.8073H40.4921C41.8619 52.526 51.2161 41.6927 67.7187 41.6927H67.7161ZM34.3281 20.8385C38.4687 21.0625 42.4895 22.2552 46.1145 24.349C51.3995 27.389 55.4659 32.1686 57.6198 37.8724C47.1614 40.8516 39.7109 48.5052 36.7161 58.8333L36.4765 59.6979L36.177 60.9375L35.1015 61.138C29.2264 62.3799 24.0172 65.7482 20.4739 70.5963L19.6718 70.1484C16.2685 68.1899 13.3458 65.4958 11.1171 62.263C10.7779 61.7696 10.5564 61.2049 10.4698 60.6123C10.3832 60.0198 10.4339 59.4153 10.6178 58.8454C10.8017 58.2756 11.114 57.7555 11.5306 57.3254C11.9472 56.8953 12.4571 56.5666 13.0208 56.3646C21.5755 53.3021 26.1849 49.8542 28.8203 44.8229C31.6979 39.3281 32.2317 33.5 30.3203 25.6719C30.1756 25.0791 30.1716 24.4608 30.3086 23.8662C30.4456 23.2717 30.7198 22.7174 31.1092 22.2478C31.4987 21.7781 31.9926 21.406 32.5515 21.1614C33.1104 20.9167 33.7188 20.8061 34.3281 20.8385V20.8385Z" fill="#4C6E8A"/>
</svg>
