<svg width="105" height="79" viewBox="0 0 105 79" fill="none" xmlns="http://www.w3.org/2000/svg">
<path fill-rule="evenodd" clip-rule="evenodd" d="M84.9427 40.6198C83.5807 27.4271 74.2187 16.5052 57.7161 16.5052C41.2135 16.5052 31.8619 27.3412 30.4921 40.6198H30.0755C19.4531 40.6198 10.8437 49.2083 10.8437 59.7995C10.8437 70.3932 19.4531 78.9792 30.0729 78.9792H85.3593C95.9791 78.9792 104.588 70.3932 104.588 59.7995C104.588 49.2083 95.9791 40.6198 85.3593 40.6198H84.9427Z" fill="#4C6E8A"/>
<path d="M42.0833 0.833345C46.0883 0.831987 50.0329 1.81009 53.5733 3.68242C57.1137 5.55476 60.1425 8.2645 62.3958 11.5755C60.8404 11.3879 59.275 11.2949 57.7083 11.2969C41.8802 11.2969 30.427 20.25 26.5625 33.7292L26.3541 34.4844L26.0546 35.7214L24.9765 35.9219C20.8771 36.7887 17.0697 38.6957 13.9205 41.4595C10.7713 44.2233 8.38628 47.7509 6.99474 51.7031C4.18823 49.5132 2.13542 46.5018 1.12281 43.0891C0.110187 39.6763 0.188283 36.0326 1.3462 32.6664C2.50411 29.3002 4.68407 26.3795 7.58183 24.3118C10.4796 22.2442 13.9506 21.1328 17.5104 21.1328H17.8802C18.8867 15.4449 21.864 10.2931 26.2898 6.58117C30.7155 2.86925 36.307 0.834304 42.0833 0.833345Z" fill="#4C6E8A"/>
</svg>
