<svg width="105" height="79" viewBox="0 0 105 79" fill="none" xmlns="http://www.w3.org/2000/svg">
<path fill-rule="evenodd" clip-rule="evenodd" d="M84.526 40.6198C83.1641 27.4271 73.8021 16.5052 57.2995 16.5052C40.7969 16.5052 31.4453 27.3412 30.0755 40.6198H29.6588C19.0365 40.6198 10.4271 49.2083 10.4271 59.7995C10.4271 70.3932 19.0365 78.9792 29.6562 78.9792H84.9427C95.5625 78.9792 104.172 70.3932 104.172 59.7995C104.172 49.2083 95.5625 40.6198 84.9427 40.6198H84.526Z" fill="#4C6E8A"/>
<path d="M41.6667 0.833345C45.6717 0.831987 49.6163 1.81009 53.1567 3.68242C56.6971 5.55476 59.7259 8.2645 61.9792 11.5755C60.4237 11.3879 58.8584 11.2949 57.2917 11.2969C41.4635 11.2969 30.0104 20.25 26.1458 33.7292L25.9375 34.4844L25.638 35.7214L24.5599 35.9219C20.4605 36.7887 16.6531 38.6957 13.5039 41.4595C10.3547 44.2233 7.96965 47.7509 6.57812 51.7031C3.77161 49.5132 1.7188 46.5018 0.706179 43.0891C-0.306439 39.6763 -0.228343 36.0326 0.929571 32.6664C2.08749 29.3002 4.26744 26.3795 7.1652 24.3118C10.063 22.2442 13.534 21.1328 17.0937 21.1328H17.4635C18.4701 15.4449 21.4474 10.2931 25.8732 6.58117C30.2989 2.86925 35.8904 0.834304 41.6667 0.833345Z" fill="#4C6E8A"/>
</svg>
