<svg width="108" height="108" viewBox="0 0 108 108" fill="none" xmlns="http://www.w3.org/2000/svg">
<path d="M60.7083 97.1667C62.0896 97.1663 63.4145 97.7147 64.3915 98.6912C65.3685 99.6677 65.9176 100.992 65.9179 102.374C65.9183 103.755 65.3699 105.08 64.3934 106.057C63.4169 107.034 62.0923 107.583 60.7109 107.583C59.3296 107.583 58.0048 107.035 57.0281 106.058C56.0513 105.081 55.5026 103.756 55.5026 102.375C55.5026 100.994 56.0513 99.6689 57.0281 98.6921C58.0048 97.7154 59.3296 97.1667 60.7109 97.1667H60.7083ZM42.4791 91.9583C43.8605 91.958 45.1854 92.5064 46.1624 93.4829C47.1394 94.4594 47.6884 95.784 47.6888 97.1654C47.6891 98.5467 47.1407 99.8716 46.1642 100.849C45.1877 101.826 43.8631 102.375 42.4817 102.375C41.1004 102.375 39.7756 101.826 38.7989 100.85C37.8221 99.8728 37.2734 98.548 37.2734 97.1667C37.2734 95.7853 37.8221 94.4606 38.7989 93.4838C39.7756 92.5071 41.1004 91.9583 42.4817 91.9583H42.4791ZM78.9375 91.9583C80.3188 91.958 81.6437 92.5064 82.6207 93.4829C83.5977 94.4594 84.1468 95.784 84.1471 97.1654C84.1475 98.5467 83.5991 99.8716 82.6225 100.849C81.646 101.826 80.3214 102.375 78.9401 102.375C77.5587 102.375 76.234 101.826 75.2572 100.85C74.2805 99.8728 73.7317 98.548 73.7317 97.1667C73.7317 95.7853 74.2805 94.4606 75.2572 93.4838C76.234 92.5071 77.5587 91.9583 78.9401 91.9583H78.9375ZM60.7083 24.276C77.2109 24.276 86.5729 35.1979 87.9349 48.3906H88.3515C98.9713 48.3906 107.581 56.9766 107.581 67.5703C107.581 78.1641 98.9713 86.75 88.3489 86.75H33.0677C22.4479 86.75 13.8385 78.1641 13.8385 67.5703C13.8385 56.9766 22.4479 48.3906 33.0677 48.3906H33.4843C34.8541 35.1094 44.2083 24.276 60.7109 24.276H60.7083ZM12.7109 45.5781C13.2777 46.5594 13.4587 47.7166 13.2184 48.824C12.9782 49.9314 12.3339 50.9096 11.4114 51.5677L11.0416 51.8047L7.65883 53.7578C6.64488 54.3452 5.44363 54.5195 4.30456 54.2444C3.1655 53.9694 2.17615 53.2661 1.54201 52.2807C0.907875 51.2953 0.677676 50.1035 0.899227 48.9528C1.12078 47.8022 1.77705 46.781 2.73175 46.1016L3.10154 45.8646L6.48695 43.9115C7.53339 43.3075 8.77686 43.1437 9.94398 43.4563C11.1111 43.7688 12.1063 44.532 12.7109 45.5781V45.5781ZM49.5338 20.7656C39.6354 23.9427 32.5833 31.4193 29.6901 41.3958L29.4453 42.2812L29.1432 43.5208L28.0703 43.7214C24.9528 44.3778 21.9959 45.6443 19.3698 47.4479C16.9737 43.3445 16.0754 38.5369 16.8281 33.8451C17.5807 29.1533 19.9376 24.8679 23.4969 21.7198C27.0561 18.5716 31.5973 16.7557 36.3459 16.5817C41.0944 16.4077 45.7563 17.8864 49.5364 20.7656H49.5338ZM7.33591 18.9896L7.67966 19.1328L11.2213 20.7839C12.2939 21.2771 13.1332 22.1672 13.5625 23.2669C13.9918 24.3665 13.9777 25.5899 13.5231 26.6794C13.0685 27.7688 12.2089 28.6394 11.1252 29.1077C10.0416 29.576 8.81851 29.6055 7.71352 29.1901L7.36977 29.0443L3.8281 27.3932C2.76379 26.8949 1.93312 26.0047 1.50953 24.9086C1.08594 23.8124 1.10219 22.5949 1.55487 21.5104C2.00756 20.4259 2.86169 19.5582 3.93891 19.0885C5.01614 18.6188 6.23318 18.5833 7.33591 18.9896ZM57.1015 3.98438C58.0387 4.64022 58.695 5.62451 58.9401 6.74182C59.1852 7.85913 59.0011 9.02774 58.4245 10.0156L58.2213 10.3307L55.9817 13.5313C55.3094 14.501 54.2872 15.1721 53.1302 15.4035C51.9731 15.6348 50.7714 15.4084 49.7779 14.7718C48.7844 14.1352 48.0765 13.1381 47.8032 11.9902C47.5299 10.8423 47.7124 9.6332 48.3125 8.61719L48.5156 8.30469L50.7552 5.10156C51.0984 4.61101 51.5349 4.1929 52.0398 3.87111C52.5447 3.54933 53.108 3.33018 53.6976 3.22619C54.2873 3.1222 54.8916 3.1354 55.4761 3.26505C56.0606 3.39469 56.6138 3.63824 57.1041 3.98177L57.1015 3.98438ZM30.3021 2.89063L30.4713 3.29688L31.8073 6.96875C32.2081 8.06903 32.1699 9.28137 31.7008 10.3543C31.2317 11.4272 30.3675 12.2784 29.2876 12.7312C28.2077 13.1841 26.995 13.2039 25.9009 12.7865C24.8068 12.3691 23.9153 11.5466 23.4114 10.4896L23.2422 10.0859L21.9062 6.41406C21.5054 5.31378 21.5436 4.10145 22.0127 3.02853C22.4818 1.9556 23.346 1.10444 24.4259 0.65158C25.5057 0.198722 26.7185 0.178928 27.8126 0.596303C28.9067 1.01368 29.7982 1.83619 30.3021 2.89323V2.89063Z" fill="#4C6E8A"/>
</svg>
