<svg width="105" height="105" viewBox="0 0 105 105" fill="none" xmlns="http://www.w3.org/2000/svg">
<path d="M57.7083 94.1667C59.0897 94.1667 60.4144 94.7154 61.3912 95.6922C62.3679 96.6689 62.9167 97.9937 62.9167 99.375C62.9167 100.756 62.3679 102.081 61.3912 103.058C60.4144 104.035 59.0897 104.583 57.7083 104.583C56.327 104.583 55.0022 104.035 54.0255 103.058C53.0487 102.081 52.5 100.756 52.5 99.375C52.5 97.9937 53.0487 96.6689 54.0255 95.6922C55.0022 94.7154 56.327 94.1667 57.7083 94.1667V94.1667ZM39.4792 88.9583C40.8605 88.9583 42.1853 89.5071 43.162 90.4838C44.1388 91.4606 44.6875 92.7853 44.6875 94.1667C44.6875 95.548 44.1388 96.8728 43.162 97.8495C42.1853 98.8263 40.8605 99.375 39.4792 99.375C38.0978 99.375 36.7731 98.8263 35.7963 97.8495C34.8196 96.8728 34.2708 95.548 34.2708 94.1667C34.2708 92.7853 34.8196 91.4606 35.7963 90.4838C36.7731 89.5071 38.0978 88.9583 39.4792 88.9583V88.9583ZM75.9375 88.9583C77.3188 88.9583 78.6436 89.5071 79.6203 90.4838C80.5971 91.4606 81.1458 92.7853 81.1458 94.1667C81.1458 95.548 80.5971 96.8728 79.6203 97.8495C78.6436 98.8263 77.3188 99.375 75.9375 99.375C74.5562 99.375 73.2314 98.8263 72.2546 97.8495C71.2779 96.8728 70.7292 95.548 70.7292 94.1667C70.7292 92.7853 71.2779 91.4606 72.2546 90.4838C73.2314 89.5071 74.5562 88.9583 75.9375 88.9583ZM57.7057 21.276C74.2083 21.276 83.5703 32.1979 84.9323 45.3906H85.3489C95.9687 45.3906 104.578 53.9766 104.578 64.5703C104.578 75.1641 95.9687 83.75 85.3489 83.75H30.0625C19.4427 83.75 10.8333 75.1641 10.8333 64.5703C10.8333 53.9766 19.4427 45.3906 30.0625 45.3906H30.4792C31.849 32.1094 41.2031 21.276 57.7057 21.276V21.276ZM24.3177 0.42188C28.4583 0.645838 32.4792 1.83855 36.1042 3.9323C41.3891 6.97229 45.4555 11.752 47.6094 17.4557C37.151 20.4349 29.7005 28.0885 26.7057 38.4167L26.4661 39.2813L26.1667 40.5208L25.0911 40.7214C19.217 41.9638 14.0087 45.3321 10.4661 50.1797L9.65885 49.7318C6.2565 47.773 3.33467 45.0789 1.10676 41.8464C0.766952 41.3531 0.545048 40.7883 0.458188 40.1957C0.371327 39.603 0.421832 38.9983 0.605805 38.4283C0.789777 37.8582 1.1023 37.3381 1.51923 36.908C1.93616 36.478 2.44635 36.1495 3.01041 35.9479C11.5651 32.8854 16.1745 29.4375 18.8099 24.4063C21.6875 18.9115 22.2213 13.0833 20.3099 5.25521C20.1652 4.66248 20.1612 4.04413 20.2982 3.44958C20.4352 2.85503 20.7094 2.30077 21.0988 1.8311C21.4883 1.36144 21.9822 0.989389 22.5411 0.744696C23.1 0.500004 23.7084 0.389453 24.3177 0.42188V0.42188Z" fill="#4C6E8A"/>
</svg>
