<svg width="108" height="108" viewBox="0 0 108 108" fill="none" xmlns="http://www.w3.org/2000/svg">
<path d="M60.7135 24.25C77.2161 24.25 86.5781 35.1745 87.9401 48.3646H88.3568C98.9765 48.3646 107.586 56.9531 107.586 67.5443C107.586 77.9271 99.3177 86.3802 88.9922 86.7135L88.1771 86.724L76.9791 105.367C76.3718 106.365 75.4043 107.092 74.2766 107.397C73.1489 107.702 71.9471 107.562 70.9193 107.007C69.8916 106.451 69.1164 105.523 68.7539 104.412C68.3914 103.301 68.4692 102.094 68.9713 101.039L69.1666 100.674L77.5443 86.724H67.3437L56.1458 105.367C55.5416 106.372 54.5735 107.105 53.4427 107.414C52.3119 107.724 51.1054 107.585 50.074 107.028C49.0426 106.471 48.2656 105.537 47.9046 104.422C47.5435 103.307 47.6262 102.095 48.1354 101.039L48.3333 100.674L56.7109 86.724H46.5104L35.3125 105.367C34.7083 106.372 33.7402 107.105 32.6094 107.414C31.4786 107.724 30.2721 107.585 29.2407 107.028C28.2093 106.471 27.4323 105.537 27.0712 104.422C26.7102 103.307 26.7929 102.095 27.3021 101.039L27.5 100.674L35.8776 86.724H33.0703C22.4505 86.724 13.8411 78.138 13.8411 67.5443C13.8411 56.9531 22.4505 48.3646 33.0703 48.3646H33.487C34.8567 35.0859 44.2109 24.25 60.7135 24.25V24.25ZM12.7109 45.5781C13.2777 46.5594 13.4587 47.7166 13.2184 48.824C12.9782 49.9314 12.3339 50.9096 11.4114 51.5677L11.0416 51.8047L7.65883 53.7578C6.64488 54.3452 5.44363 54.5195 4.30456 54.2444C3.1655 53.9694 2.17615 53.2661 1.54201 52.2807C0.907875 51.2953 0.677676 50.1035 0.899227 48.9528C1.12078 47.8022 1.77705 46.7811 2.73175 46.1016L3.10154 45.8646L6.48695 43.9115C7.53339 43.3075 8.77686 43.1437 9.94398 43.4563C11.1111 43.7688 12.1063 44.532 12.7109 45.5781V45.5781ZM49.5338 20.7656C39.6354 23.9427 32.5833 31.4193 29.6901 41.3958L29.4453 42.2813L29.1432 43.5208L28.0703 43.7214C24.9528 44.3778 21.9959 45.6443 19.3698 47.4479C16.9737 43.3445 16.0754 38.5369 16.8281 33.8451C17.5807 29.1533 19.9376 24.8679 23.4969 21.7198C27.0561 18.5716 31.5973 16.7557 36.3459 16.5817C41.0944 16.4077 45.7563 17.8864 49.5364 20.7656H49.5338ZM7.33591 18.9896L7.67966 19.1328L11.2213 20.7839C12.2939 21.2771 13.1332 22.1672 13.5625 23.2669C13.9918 24.3665 13.9777 25.5899 13.5231 26.6794C13.0685 27.7688 12.2089 28.6394 11.1252 29.1077C10.0416 29.576 8.81851 29.6055 7.71352 29.1901L7.36977 29.0443L3.8281 27.3932C2.76379 26.8949 1.93312 26.0047 1.50953 24.9086C1.08594 23.8124 1.10219 22.5949 1.55487 21.5104C2.00756 20.4259 2.86169 19.5582 3.93891 19.0885C5.01614 18.6188 6.23318 18.5833 7.33591 18.9896ZM57.1015 3.98438C58.0387 4.64022 58.695 5.62451 58.9401 6.74182C59.1852 7.85913 59.0011 9.02774 58.4245 10.0156L58.2213 10.3307L55.9817 13.5313C55.3094 14.501 54.2872 15.1721 53.1302 15.4035C51.9731 15.6349 50.7714 15.4084 49.7779 14.7718C48.7844 14.1352 48.0765 13.1381 47.8032 11.9902C47.5299 10.8423 47.7124 9.6332 48.3125 8.61719L48.5156 8.30469L50.7552 5.10156C51.0984 4.61101 51.5349 4.1929 52.0398 3.87111C52.5447 3.54933 53.108 3.33018 53.6976 3.22619C54.2873 3.1222 54.8916 3.1354 55.4761 3.26505C56.0606 3.3947 56.6138 3.63824 57.1041 3.98177L57.1015 3.98438ZM30.3021 2.89063L30.4713 3.29688L31.8073 6.96875C32.2081 8.06903 32.1699 9.28137 31.7008 10.3543C31.2317 11.4272 30.3675 12.2784 29.2876 12.7312C28.2077 13.1841 26.995 13.2039 25.9009 12.7865C24.8068 12.3691 23.9153 11.5466 23.4114 10.4896L23.2422 10.0859L21.9062 6.41407C21.5054 5.31378 21.5436 4.10145 22.0127 3.02853C22.4818 1.9556 23.346 1.10444 24.4259 0.65158C25.5057 0.198722 26.7185 0.178928 27.8126 0.596303C28.9067 1.01368 29.7982 1.83619 30.3021 2.89323V2.89063Z" fill="#4C6E8A"/>
</svg>
