<svg width="105" height="105" viewBox="0 0 105 105" fill="none" xmlns="http://www.w3.org/2000/svg">
<path d="M57.7109 21.25C74.2135 21.25 83.5755 32.1745 84.9375 45.3646H85.3542C95.974 45.3646 104.583 53.9531 104.583 64.5443C104.583 75.138 95.974 83.724 85.3542 83.724H85.1745L73.9766 102.367C73.3692 103.365 72.4017 104.092 71.274 104.397C70.1463 104.702 68.9445 104.562 67.9167 104.007C66.889 103.451 66.1138 102.523 65.7513 101.412C65.3888 100.301 65.4666 99.0939 65.9687 98.0391L66.1641 97.6745L74.5417 83.724H64.3411L53.1432 102.367C52.5358 103.365 51.5684 104.092 50.4407 104.397C49.313 104.702 48.1111 104.562 47.0834 104.007C46.0556 103.451 45.2805 102.523 44.918 101.412C44.5554 100.301 44.6333 99.0939 45.1354 98.0391L45.3307 97.6745L53.7083 83.724H43.5078L32.3099 102.367C31.7025 103.365 30.735 104.092 29.6073 104.397C28.4796 104.702 27.2778 104.562 26.2501 104.007C25.2223 103.451 24.4471 102.523 24.0846 101.412C23.7221 100.301 23.8 99.0939 24.3021 98.0391L24.4974 97.6745L32.875 83.724H30.0677C19.4479 83.724 10.8385 75.138 10.8385 64.5443C10.8385 53.9531 19.4479 45.3646 30.0677 45.3646H30.4844C31.8542 32.0859 41.2083 21.25 57.7109 21.25V21.25ZM24.3177 0.42188C28.4583 0.645838 32.4792 1.83855 36.1042 3.9323C41.3891 6.97229 45.4555 11.752 47.6094 17.4557C37.151 20.4349 29.7005 28.0885 26.7057 38.4167L26.4661 39.2813L26.1667 40.5208L25.0911 40.7214C19.217 41.9638 14.0087 45.3321 10.4661 50.1797L9.65885 49.7318C6.2565 47.773 3.33467 45.0789 1.10676 41.8464C0.766952 41.3531 0.545048 40.7883 0.458188 40.1957C0.371327 39.603 0.421832 38.9983 0.605805 38.4283C0.789777 37.8582 1.1023 37.3381 1.51923 36.908C1.93616 36.478 2.44635 36.1495 3.01041 35.9479C11.5651 32.8854 16.1745 29.4375 18.8099 24.4063C21.6875 18.9115 22.2213 13.0833 20.3099 5.25521C20.1652 4.66248 20.1612 4.04413 20.2982 3.44958C20.4352 2.85503 20.7094 2.30077 21.0988 1.8311C21.4883 1.36144 21.9822 0.989389 22.5411 0.744696C23.1 0.500004 23.7084 0.389453 24.3177 0.42188V0.42188Z" fill="#4C6E8A"/>
</svg>
