<svg width="105" height="102" viewBox="0 0 105 102" fill="none" xmlns="http://www.w3.org/2000/svg">
<path d="M61.2396 56.1328C62.1199 56.8526 62.6993 57.8754 62.8641 59.0005C63.0289 60.1256 62.7671 61.2716 62.1302 62.2136L61.8828 62.5469L56.2474 69.4349H68.763C72.5026 69.4349 74.6016 73.6589 72.487 76.6224L72.263 76.9115L52.7292 100.341C51.9799 101.248 50.9091 101.83 49.7405 101.966C48.572 102.101 47.3964 101.779 46.4595 101.068C45.5227 100.357 44.8973 99.3104 44.7141 98.1484C44.5309 96.9864 44.8041 95.7985 45.4766 94.8334L45.7292 94.5026L59.026 78.5495H46.6354C42.9167 78.5495 40.8125 74.3672 42.8854 71.4011L43.1094 71.1094L54.8281 56.7761C55.5932 55.8408 56.6984 55.2476 57.9007 55.127C59.103 55.0064 60.304 55.3682 61.2396 56.1328V56.1328ZM57.7083 16.0886C74.2135 16.0886 83.5729 27.0104 84.9349 40.2031H85.3516C95.9714 40.2031 104.581 48.7917 104.581 59.3828C104.581 69.9766 95.9714 78.5625 85.3516 78.5625H77.375C80.7187 72.2188 76.2969 64.2266 68.7656 64.2266H66.9583L67.1328 63.8854C69.0599 59.7813 68.039 54.9636 64.539 52.1016C63.5461 51.2898 62.403 50.6816 61.175 50.3116C59.947 49.9417 58.6582 49.8172 57.3821 49.9454C56.106 50.0736 54.8676 50.4518 53.7377 51.0586C52.6078 51.6654 51.6085 52.4888 50.7969 53.4818L39.0781 67.8125L38.737 68.2578L38.4713 68.6563C37.5248 70.1202 36.9853 71.8098 36.9085 73.5513C36.8316 75.2929 37.22 77.0235 38.0338 78.5651H30.0651C19.4479 78.5651 10.8385 69.9766 10.8385 59.3828C10.8385 49.0026 19.1068 40.5469 29.4323 40.2136L30.4844 40.2031C31.8516 26.9245 41.2057 16.0886 57.7109 16.0886H57.7083ZM42.0755 0.41669C46.0699 0.414771 50.0045 1.38714 53.5382 3.2495C57.0719 5.11186 60.098 7.808 62.3542 11.1042C60.8088 10.9215 59.254 10.8311 57.6979 10.8334C41.8698 10.8334 30.4167 19.7917 26.5521 33.2813L26.3437 34.0365L26.0443 35.2761L24.9687 35.474C20.8652 36.3424 17.0545 38.2529 13.9037 41.0215C10.7529 43.7901 8.3681 47.3235 6.97916 51.2813C4.1744 49.0905 2.12338 46.0789 1.11219 42.6667C0.10101 39.2544 0.180098 35.6116 1.33843 32.2464C2.49675 28.8813 4.67655 25.9615 7.57375 23.8946C10.4709 21.8276 13.941 20.7165 17.5 20.7162H17.8698C18.8759 15.028 21.8531 9.87591 26.2789 6.1639C30.7047 2.45189 36.2965 0.417136 42.0729 0.41669H42.0755Z" fill="#4C6E8A"/>
</svg>
