<svg width="105" height="102" viewBox="0 0 105 102" fill="none" xmlns="http://www.w3.org/2000/svg">
<path d="M60.8319 56.1328C61.7121 56.8526 62.2916 57.8754 62.4564 59.0005C62.6211 60.1256 62.3594 61.2716 61.7225 62.2136L61.4751 62.5469L55.8397 69.4349H68.3553C72.0949 69.4349 74.1938 73.6589 72.0793 76.6224L71.8553 76.9115L52.3214 100.341C51.5722 101.248 50.5013 101.83 49.3328 101.966C48.1643 102.101 46.9886 101.779 46.0518 101.068C45.115 100.357 44.4896 99.3104 44.3063 98.1484C44.1231 96.9864 44.3964 95.7985 45.0688 94.8334L45.3214 94.5026L58.6183 78.5495H46.2277C42.5089 78.5495 40.4048 74.3672 42.4777 71.4011L42.7016 71.1094L54.4204 56.7761C55.1855 55.8408 56.2906 55.2476 57.493 55.127C58.6953 55.0064 59.8963 55.3682 60.8319 56.1328V56.1328ZM57.3006 16.0886C73.8058 16.0886 83.1652 27.0104 84.5272 40.2031H84.9438C95.5636 40.2031 104.173 48.7917 104.173 59.3828C104.173 69.9766 95.5636 78.5625 84.9438 78.5625H76.9673C80.311 72.2188 75.8892 64.2266 68.3579 64.2266H66.5506L66.7251 63.8854C68.6522 59.7813 67.6313 54.9636 64.1313 52.1016C63.1384 51.2898 61.9953 50.6816 60.7673 50.3116C59.5393 49.9417 58.2505 49.8172 56.9744 49.9454C55.6983 50.0736 54.4599 50.4518 53.33 51.0586C52.2001 51.6654 51.2008 52.4888 50.3892 53.4818L38.6704 67.8125L38.3293 68.2578L38.0636 68.6563C37.1171 70.1202 36.5776 71.8098 36.5007 73.5513C36.4238 75.2929 36.8123 77.0235 37.6261 78.5651H29.6574C19.0402 78.5651 10.4308 69.9766 10.4308 59.3828C10.4308 49.0026 18.699 40.5469 29.0246 40.2136L30.0767 40.2031C31.4438 26.9245 40.798 16.0886 57.3032 16.0886H57.3006ZM41.6678 0.41669C45.6622 0.414771 49.5968 1.38714 53.1305 3.2495C56.6641 5.11186 59.6902 7.808 61.9464 11.1042C60.4011 10.9215 58.8463 10.8311 57.2902 10.8334C41.4621 10.8334 30.0089 19.7917 26.1444 33.2813L25.936 34.0365L25.6365 35.2761L24.561 35.474C20.4575 36.3424 16.6468 38.2529 13.496 41.0215C10.3451 43.7901 7.96038 47.3235 6.57144 51.2813C3.76669 49.0905 1.71566 46.0789 0.704478 42.6667C-0.306705 39.2544 -0.227617 35.6116 0.93071 32.2464C2.08904 28.8813 4.26884 25.9615 7.16603 23.8946C10.0632 21.8276 13.5333 20.7165 17.0923 20.7162H17.4621C18.4682 15.028 21.4453 9.87591 25.8712 6.1639C30.297 2.45189 35.8888 0.417136 41.6652 0.41669H41.6678Z" fill="#4C6E8A"/>
</svg>
