<svg width="111" height="111" viewBox="0 0 111 111" fill="none" xmlns="http://www.w3.org/2000/svg">
<path d="M19.2448 76.5703L18.9584 76.8698C18.1343 77.656 17.0457 78.1052 15.9069 78.1288C14.7682 78.1524 13.6619 77.7487 12.806 76.9973C11.95 76.2459 11.4064 75.2012 11.2823 74.069C11.1582 72.9368 11.4626 71.7992 12.1354 70.8802L12.3959 70.5547L22.1927 59.4063H5.36982C4.194 59.4057 3.06388 58.9508 2.21569 58.1364C1.36749 57.3221 0.866863 56.2115 0.818444 55.0366C0.770026 53.8618 1.17756 52.7137 1.95587 51.8324C2.73418 50.951 3.82303 50.4046 4.99482 50.3073L5.36982 50.2917H22.1797L12.3959 39.1407L12.1354 38.8177C11.4626 37.8988 11.1582 36.7611 11.2823 35.6289C11.4064 34.4967 11.95 33.4521 12.806 32.7006C13.6619 31.9492 14.7682 31.5456 15.9069 31.5692C17.0457 31.5928 18.1343 32.0419 18.9584 32.8282L19.2448 33.1302L34.3099 50.2917H50.2917V34.3334L33.1276 19.2396C32.2516 18.4641 31.7073 17.3814 31.6076 16.2156C31.5078 15.0499 31.8603 13.8904 32.5919 12.9774C33.3235 12.0644 34.3783 11.4677 35.5378 11.311C36.6972 11.1542 37.8725 11.4494 38.8203 12.1354L39.1459 12.3959L50.2917 22.1927V5.36982C50.2922 4.194 50.7472 3.06388 51.5615 2.21569C52.3758 1.36749 53.4865 0.866863 54.6613 0.818444C55.8361 0.770026 56.9842 1.17756 57.8656 1.95587C58.7469 2.73418 59.2934 3.82303 59.3906 4.99482L59.4063 5.36982V22.1979L70.5521 12.4063L70.8776 12.1459C71.7966 11.4762 72.9327 11.1742 74.0629 11.2992C75.1931 11.4242 76.2357 11.9673 76.986 12.8217C77.7363 13.6761 78.1402 14.7801 78.1182 15.917C78.0962 17.0538 77.65 18.1414 76.8672 18.9662L76.5703 19.2526L59.4063 34.3308V50.2917H76.7031L91.7995 33.1276C92.575 32.2516 93.6577 31.7073 94.8235 31.6076C95.9892 31.5078 97.1487 31.8603 98.0617 32.5919C98.9747 33.3235 99.5714 34.3783 99.7281 35.5378C99.8849 36.6972 99.5897 37.8725 98.9037 38.8203L98.6433 39.1459L88.8412 50.2917H105.63C106.806 50.2922 107.936 50.7472 108.784 51.5615C109.633 52.3758 110.133 53.4865 110.182 54.6613C110.23 55.8361 109.822 56.9842 109.044 57.8656C108.266 58.7469 107.177 59.2934 106.005 59.3906L105.63 59.4063H88.8386L98.6328 70.5521C99.4154 71.4319 99.8272 72.5804 99.7818 73.7569C99.7363 74.9335 99.2373 76.0469 98.3892 76.8637C97.5411 77.6804 96.4098 78.1373 95.2323 78.1384C94.0548 78.1396 92.9226 77.6849 92.0729 76.8698L91.7865 76.5703L76.7058 59.4063H59.4063V76.6849L76.5703 91.7656C77.4606 92.5371 78.0175 93.6234 78.1242 94.7965C78.231 95.9697 77.8794 97.1386 77.1431 98.0581C76.4068 98.9777 75.343 99.5764 74.1749 99.7287C73.0068 99.881 71.8251 99.575 70.8776 98.875L70.5547 98.6146L59.4063 88.8203V105.63C59.4057 106.806 58.9508 107.936 58.1364 108.784C57.3221 109.633 56.2115 110.133 55.0366 110.182C53.8618 110.23 52.7137 109.822 51.8324 109.044C50.951 108.266 50.4046 107.177 50.3073 106.005L50.2917 105.63V88.8099L39.1459 98.612L38.8203 98.8724C37.9017 99.5421 36.7658 99.8442 35.6358 99.7195C34.5058 99.5948 33.4633 99.0522 32.7127 98.1983C31.9622 97.3444 31.558 96.2408 31.5793 95.1041C31.6007 93.9675 32.0461 92.8798 32.8282 92.0547L33.1276 91.7682L50.2917 76.6719V59.4063H34.3229L19.2448 76.5703Z" fill="#4C6E8A"/>
</svg>
