<svg width="95" height="95" viewBox="0 0 95 95" fill="none" xmlns="http://www.w3.org/2000/svg">
<path d="M68.9844 85.2604C70.1602 85.261 71.2903 85.7159 72.1385 86.5303C72.9867 87.3446 73.4873 88.4552 73.5357 89.6301C73.5842 90.8049 73.1766 91.953 72.3983 92.8343C71.62 93.7157 70.5312 94.2621 69.3594 94.3594L68.987 94.375H26.0182C24.8424 94.3745 23.7123 93.9195 22.8641 93.1052C22.0159 92.2909 21.5153 91.1802 21.4669 90.0054C21.4184 88.8306 21.826 87.6825 22.6043 86.8011C23.3826 85.9198 24.4714 85.3734 25.6432 85.2761L26.0182 85.2604H68.987H68.9844ZM84.6094 69.6485C85.7852 69.649 86.9153 70.104 87.7635 70.9183C88.6117 71.7326 89.1123 72.8433 89.1607 74.0181C89.2092 75.1929 88.8016 76.341 88.0233 77.2223C87.245 78.1037 86.1562 78.6501 84.9844 78.7474L84.612 78.763H10.3906C9.21502 78.7619 8.08536 78.3064 7.23767 77.4919C6.38998 76.6773 5.88985 75.5667 5.84178 74.3921C5.7937 73.2175 6.20141 72.0697 6.9797 71.1887C7.75799 70.3076 8.84666 69.7613 10.0182 69.6641L10.3906 69.6485H84.6094ZM47.5 0.651062C64.0026 0.651062 73.3646 11.5729 74.7266 24.7656H75.1432C85.763 24.7656 94.3724 33.3516 94.3724 43.9453C94.3724 54.5391 85.7604 63.125 75.1406 63.125H19.8542C9.23437 63.125 0.625 54.5391 0.625 43.9453C0.625 33.3516 9.23437 24.7656 19.8542 24.7656H20.2708C21.6406 11.487 30.9948 0.651062 47.5 0.651062Z" fill="#4C6E8A"/>
</svg>
